<?xml version="1.0" encoding="utf-8"?>
<!-- Generator: Adobe Illustrator 16.0.3, SVG Export Plug-In . SVG Version: 6.00 Build 0)  -->
<!DOCTYPE svg PUBLIC "-//W3C//DTD SVG 1.1//EN" "http://www.w3.org/Graphics/SVG/1.1/DTD/svg11.dtd">
<svg version="1.1" id="Layer_1" xmlns="http://www.w3.org/2000/svg" xmlns:xlink="http://www.w3.org/1999/xlink" x="0px" y="0px"
	 width="43.389px" height="44.962px" viewBox="0 0 43.389 44.962" enable-background="new 0 0 43.389 44.962" xml:space="preserve">
<line fill="#FFFFFF" stroke="#EA8C2A" stroke-miterlimit="10" x1="42.889" y1="0.521" x2="32.377" y2="0.521"/>
<rect x="32.377" y="0.5" fill="#FFFFFF" stroke="#EA8C2A" stroke-miterlimit="10" width="10.512" height="10.508"/>
<line fill="#FFFFFF" stroke="#EA8C2A" stroke-miterlimit="10" x1="11.072" y1="11.018" x2="11.072" y2="0.51"/>
<line fill="#FFFFFF" stroke="#EA8C2A" stroke-miterlimit="10" x1="11.141" y1="0.5" x2="11.141" y2="11.008"/>
<rect x="0.5" y="0.51" fill="#FFFFFF" stroke="#EA8C2A" stroke-miterlimit="10" width="10.508" height="10.508"/>
<line fill="#FFFFFF" stroke="#EA8C2A" stroke-miterlimit="10" x1="11.008" y1="0.531" x2="0.5" y2="0.531"/>
<rect x="11.359" y="0.51" fill="#FFFFFF" stroke="#EA8C2A" stroke-miterlimit="10" width="10.508" height="10.508"/>
<rect x="21.867" y="0.51" fill="#FFFFFF" stroke="#EA8C2A" stroke-miterlimit="10" width="10.508" height="10.508"/>
<rect x="0.5" y="12.666" fill="#FFFFFF" stroke="#EA8C2A" stroke-miterlimit="10" width="4.017" height="4.018"/>
<rect x="6.096" y="12.666" fill="#FFFFFF" stroke="#EA8C2A" stroke-miterlimit="10" width="4.018" height="4.018"/>
<rect x="11.672" y="12.666" fill="#FFFFFF" stroke="#EA8C2A" stroke-miterlimit="10" width="4.017" height="4.018"/>
<rect x="17.235" y="12.666" fill="#FFFFFF" stroke="#EA8C2A" stroke-miterlimit="10" width="4.018" height="4.018"/>
<rect x="22.632" y="12.666" fill="#FFFFFF" stroke="#EA8C2A" stroke-miterlimit="10" width="4.017" height="4.018"/>
<rect x="27.945" y="12.666" fill="#FFFFFF" stroke="#EA8C2A" stroke-miterlimit="10" width="4.018" height="4.018"/>
<rect x="33.275" y="12.666" fill="#FFFFFF" stroke="#EA8C2A" stroke-miterlimit="10" width="4.016" height="4.018"/>
<rect x="38.871" y="12.666" fill="#FFFFFF" stroke="#EA8C2A" stroke-miterlimit="10" width="4.018" height="4.018"/>
<rect x="0.5" y="18.206" fill="#FFFFFF" stroke="#EA8C2A" stroke-miterlimit="10" width="4.017" height="4.018"/>
<rect x="6.096" y="18.206" fill="#FFFFFF" stroke="#EA8C2A" stroke-miterlimit="10" width="4.018" height="4.018"/>
<rect x="11.672" y="18.206" fill="#FFFFFF" stroke="#EA8C2A" stroke-miterlimit="10" width="4.017" height="4.018"/>
<rect x="17.235" y="18.206" fill="#FFFFFF" stroke="#EA8C2A" stroke-miterlimit="10" width="4.018" height="4.018"/>
<rect x="22.632" y="18.206" fill="#FFFFFF" stroke="#EA8C2A" stroke-miterlimit="10" width="4.017" height="4.018"/>
<rect x="27.945" y="18.206" fill="#FFFFFF" stroke="#EA8C2A" stroke-miterlimit="10" width="4.018" height="4.018"/>
<rect x="33.275" y="18.206" fill="#FFFFFF" stroke="#EA8C2A" stroke-miterlimit="10" width="4.016" height="4.018"/>
<rect x="38.871" y="18.206" fill="#FFFFFF" stroke="#EA8C2A" stroke-miterlimit="10" width="4.018" height="4.018"/>
<rect x="0.5" y="23.69" fill="#FFFFFF" stroke="#EA8C2A" stroke-miterlimit="10" width="4.017" height="4.018"/>
<rect x="6.096" y="23.69" fill="#FFFFFF" stroke="#EA8C2A" stroke-miterlimit="10" width="4.018" height="4.018"/>
<rect x="11.672" y="23.69" fill="#FFFFFF" stroke="#EA8C2A" stroke-miterlimit="10" width="4.017" height="4.018"/>
<rect x="17.235" y="23.69" fill="#FFFFFF" stroke="#EA8C2A" stroke-miterlimit="10" width="4.018" height="4.018"/>
<rect x="27.945" y="23.69" fill="#FFFFFF" stroke="#EA8C2A" stroke-miterlimit="10" width="4.018" height="4.018"/>
<rect x="33.275" y="23.69" fill="#FFFFFF" stroke="#EA8C2A" stroke-miterlimit="10" width="4.016" height="4.018"/>
<rect x="38.871" y="23.69" fill="#FFFFFF" stroke="#EA8C2A" stroke-miterlimit="10" width="4.018" height="4.018"/>
<rect x="0.5" y="29.229" fill="#FFFFFF" stroke="#EA8C2A" stroke-miterlimit="10" width="4.017" height="4.018"/>
<rect x="11.672" y="29.229" fill="#FFFFFF" stroke="#EA8C2A" stroke-miterlimit="10" width="4.017" height="4.018"/>
<rect x="17.235" y="29.229" fill="#FFFFFF" stroke="#EA8C2A" stroke-miterlimit="10" width="4.018" height="4.018"/>
<rect x="27.945" y="29.229" fill="#FFFFFF" stroke="#EA8C2A" stroke-miterlimit="10" width="4.018" height="4.018"/>
<rect x="33.275" y="29.229" fill="#FFFFFF" stroke="#EA8C2A" stroke-miterlimit="10" width="4.016" height="4.018"/>
<rect x="11.672" y="34.939" fill="#FFFFFF" stroke="#EA8C2A" stroke-miterlimit="10" width="4.017" height="4.019"/>
<rect x="17.235" y="34.939" fill="#FFFFFF" stroke="#EA8C2A" stroke-miterlimit="10" width="4.018" height="4.019"/>
<rect x="27.945" y="34.939" fill="#FFFFFF" stroke="#EA8C2A" stroke-miterlimit="10" width="4.018" height="4.019"/>
<rect x="17.235" y="40.443" fill="#FFFFFF" stroke="#EA8C2A" stroke-miterlimit="10" width="4.018" height="4.019"/>
<rect x="0.5" y="34.939" fill="#FFFFFF" stroke="#EA8C2A" stroke-miterlimit="10" width="4.017" height="4.019"/>
<rect x="0.5" y="40.443" fill="#FFFFFF" stroke="#EA8C2A" stroke-miterlimit="10" width="4.017" height="4.019"/>
</svg>
