<?xml version="1.0" encoding="utf-8"?>
<!-- Generator: Adobe Illustrator 16.0.3, SVG Export Plug-In . SVG Version: 6.00 Build 0)  -->
<!DOCTYPE svg PUBLIC "-//W3C//DTD SVG 1.1//EN" "http://www.w3.org/Graphics/SVG/1.1/DTD/svg11.dtd">
<svg version="1.1" id="Layer_1" xmlns="http://www.w3.org/2000/svg" xmlns:xlink="http://www.w3.org/1999/xlink" x="0px" y="0px"
	 width="43.274px" height="42.947px" viewBox="0 0 43.274 42.947" enable-background="new 0 0 43.274 42.947" xml:space="preserve">
<path fill="#FFFFFF" stroke="#2A80E4" stroke-miterlimit="10" d="M42.748,21.489"/>
<line fill="#FFFFFF" stroke="#2A80E4" stroke-miterlimit="10" x1="42.774" y1="21.622" x2="32.263" y2="21.622"/>
<rect x="32.263" y="21.442" fill="#FFFFFF" stroke="#2A80E4" stroke-miterlimit="10" width="10.512" height="10.509"/>
<rect x="32.263" y="31.93" fill="#FFFFFF" stroke="#2A80E4" stroke-miterlimit="10" width="10.512" height="10.508"/>
<line fill="#FFFFFF" stroke="#2A80E4" stroke-miterlimit="10" x1="10.958" y1="42.447" x2="10.958" y2="31.939"/>
<line fill="#FFFFFF" stroke="#2A80E4" stroke-miterlimit="10" x1="11.026" y1="31.93" x2="11.026" y2="42.438"/>
<rect x="0.5" y="31.939" fill="#FFFFFF" stroke="#2A80E4" stroke-miterlimit="10" width="10.508" height="10.508"/>
<rect x="0.5" y="21.452" fill="#FFFFFF" stroke="#2A80E4" stroke-miterlimit="10" width="10.508" height="10.509"/>
<path fill="#FFFFFF" stroke="#2A80E4" stroke-miterlimit="10" d="M42.748,10.974"/>
<line fill="#FFFFFF" stroke="#2A80E4" stroke-miterlimit="10" x1="42.774" y1="11.106" x2="32.263" y2="11.106"/>
<rect x="32.263" y="10.927" fill="#FFFFFF" stroke="#2A80E4" stroke-miterlimit="10" width="10.512" height="10.51"/>
<rect x="0.5" y="10.927" fill="#FFFFFF" stroke="#2A80E4" stroke-miterlimit="10" width="10.508" height="10.51"/>
<rect x="0.5" y="0.5" fill="#FFFFFF" stroke="#2A80E4" stroke-miterlimit="10" width="10.508" height="10.51"/>
<rect x="32.265" y="0.5" fill="#FFFFFF" stroke="#2A80E4" stroke-miterlimit="10" width="10.508" height="10.51"/>
<rect x="21.753" y="0.5" fill="#FFFFFF" stroke="#2A80E4" stroke-miterlimit="10" width="10.508" height="10.51"/>
<rect x="11.245" y="0.5" fill="#FFFFFF" stroke="#2A80E4" stroke-miterlimit="10" width="10.508" height="10.51"/>
<rect x="11.245" y="31.939" fill="#FFFFFF" stroke="#2A80E4" stroke-miterlimit="10" width="10.508" height="10.508"/>
<rect x="21.753" y="31.939" fill="#FFFFFF" stroke="#2A80E4" stroke-miterlimit="10" width="10.508" height="10.508"/>
</svg>
