<?xml version="1.0" encoding="UTF-8"?>
<svg width="77px" height="44px" viewBox="0 0 77 44" version="1.1" xmlns="http://www.w3.org/2000/svg" xmlns:xlink="http://www.w3.org/1999/xlink">
    <!-- Generator: Sketch 58 (84663) - https://sketch.com -->
    <title>h&amp;l</title>
    <desc>Created with Sketch.</desc>
    <g id="Page-1" stroke="none" stroke-width="1" fill="none" fill-rule="evenodd">
        <g id="h&amp;l" fill="#FFFFFF" fill-rule="nonzero">
            <path d="M42.774,21.622 L32.263,21.622" id="Path" stroke="#2A80E4"></path>
            <rect id="Rectangle" stroke="#000000" x="43" y="1" width="10.512" height="10.509"></rect>
            <rect id="Rectangle" stroke="#000000" x="54" y="1" width="10.512" height="10.508"></rect>
            <path d="M10.958,42.447 L10.958,31.939" id="Path" stroke="#2A80E4"></path>
            <path d="M11.026,31.93 L11.026,42.438" id="Path" stroke="#2A80E4"></path>
            <rect id="Rectangle" stroke="#000000" x="44" y="32" width="10.508" height="10.508"></rect>
            <rect id="Rectangle" stroke="#000000" x="40" y="21" width="10.508" height="10.508"></rect>
            <rect id="Rectangle" stroke="#000000" x="54" y="32" width="10.508" height="10.508"></rect>
            <rect id="Rectangle" stroke="#000000" x="0.5" y="21.452" width="10.508" height="10.509"></rect>
            <path d="M42.774,11.106 L32.263,11.106" id="Path" stroke="#2A80E4"></path>
            <rect id="Rectangle" stroke="#000000" x="32.263" y="10.927" width="10.512" height="10.51"></rect>
            <rect id="Rectangle" stroke="#000000" x="0.5" y="10.927" width="10.508" height="10.51"></rect>
            <rect id="Rectangle" stroke="#000000" x="65" y="21" width="10.508" height="10.51"></rect>
            <rect id="Rectangle" stroke="#000000" x="65" y="11" width="10.508" height="10.51"></rect>
            <rect id="Rectangle" stroke="#000000" x="21.753" y="0.5" width="10.508" height="10.51"></rect>
            <rect id="Rectangle" stroke="#000000" x="11.245" y="0.5" width="10.508" height="10.51"></rect>
            <rect id="Rectangle" stroke="#000000" x="11.245" y="31.939" width="10.508" height="10.508"></rect>
            <rect id="Rectangle" stroke="#000000" x="21.753" y="31.939" width="10.508" height="10.508"></rect>
        </g>
    </g>
</svg>