<?xml version="1.0" encoding="utf-8"?>
<!-- Generator: Adobe Illustrator 16.0.3, SVG Export Plug-In . SVG Version: 6.00 Build 0)  -->
<!DOCTYPE svg PUBLIC "-//W3C//DTD SVG 1.1//EN" "http://www.w3.org/Graphics/SVG/1.1/DTD/svg11.dtd">
<svg version="1.1" id="Layer_1" xmlns="http://www.w3.org/2000/svg" xmlns:xlink="http://www.w3.org/1999/xlink" x="0px" y="0px"
	 width="43.274px" height="42.947px" viewBox="0 0 43.274 42.947" enable-background="new 0 0 43.274 42.947" xml:space="preserve">
<path fill="#FFFFFF" stroke="#015B97" stroke-miterlimit="10" d="M42.748,21.488"/>
<line fill="#FFFFFF" stroke="#015B97" stroke-miterlimit="10" x1="42.774" y1="21.621" x2="32.263" y2="21.621"/>
<rect x="32.263" y="21.441" fill="#FFFFFF" stroke="#015B97" stroke-miterlimit="10" width="10.512" height="10.509"/>
<rect x="32.263" y="31.929" fill="#FFFFFF" stroke="#015B97" stroke-miterlimit="10" width="10.512" height="10.508"/>
<path fill="#FFFFFF" stroke="#015B97" stroke-miterlimit="10" d="M42.748,10.974"/>
<line fill="#FFFFFF" stroke="#015B97" stroke-miterlimit="10" x1="42.774" y1="11.106" x2="32.263" y2="11.106"/>
<rect x="32.263" y="10.927" fill="#FFFFFF" stroke="#015B97" stroke-miterlimit="10" width="10.512" height="10.51"/>
<rect x="0.5" y="10.927" fill="#FFFFFF" stroke="#015B97" stroke-miterlimit="10" width="10.508" height="10.51"/>
<rect x="0.5" y="0.5" fill="#FFFFFF" stroke="#015B97" stroke-miterlimit="10" width="10.508" height="10.51"/>
<rect x="32.265" y="0.5" fill="#FFFFFF" stroke="#015B97" stroke-miterlimit="10" width="10.508" height="10.51"/>
<rect x="21.753" y="0.5" fill="#FFFFFF" stroke="#015B97" stroke-miterlimit="10" width="10.508" height="10.51"/>
<rect x="11.245" y="0.5" fill="#FFFFFF" stroke="#015B97" stroke-miterlimit="10" width="10.508" height="10.51"/>
<rect x="21.753" y="31.939" fill="#FFFFFF" stroke="#015B97" stroke-miterlimit="10" width="10.508" height="10.508"/>
<path fill="#FFFFFF" stroke="#015B97" stroke-miterlimit="10" d="M32.236,21.486"/>
<line fill="#FFFFFF" stroke="#015B97" stroke-miterlimit="10" x1="32.263" y1="21.619" x2="21.751" y2="21.619"/>
<rect x="21.751" y="10.924" fill="#FFFFFF" stroke="#015B97" stroke-miterlimit="10" width="10.512" height="10.51"/>
<path fill="#FFFFFF" stroke="#015B97" stroke-miterlimit="10" d="M21.729,21.671"/>
<line fill="#FFFFFF" stroke="#015B97" stroke-miterlimit="10" x1="21.755" y1="21.804" x2="11.243" y2="21.804"/>
<rect x="11.243" y="21.624" fill="#FFFFFF" stroke="#015B97" stroke-miterlimit="10" width="10.512" height="10.51"/>
</svg>
