<?xml version="1.0" standalone="no"?>
<!DOCTYPE svg PUBLIC "-//W3C//DTD SVG 20010904//EN"
 "http://www.w3.org/TR/2001/REC-SVG-20010904/DTD/svg10.dtd">
<svg version="1.0" xmlns="http://www.w3.org/2000/svg"
 width="700.000000pt" height="700.000000pt" viewBox="0 0 700.000000 700.000000"
 preserveAspectRatio="xMidYMid meet">
<metadata>
Created by potrace 1.11, written by Peter Selinger 2001-2013
</metadata>
<g transform="translate(0.000000,700.000000) scale(0.100000,-0.100000)"
fill="#000000" stroke="none">
<path d="M0 3500 l0 -3500 3500 0 3500 0 0 3500 0 3500 -3500 0 -3500 0 0
-3500z m3088 1493 l-3 -278 -277 -3 -278 -2 0 280 0 280 280 0 280 0 -2 -277z
m2352 -1153 l0 -280 -280 0 -280 0 0 273 c0 151 3 277 7 280 3 4 129 7 280 7
l273 0 0 -280z m-2342 -2 l-3 -273 -282 -3 -283 -2 0 275 0 275 285 0 285 0
-2 -272z m1752 -568 l0 -280 -275 0 -275 0 0 280 0 280 275 0 275 0 0 -280z
m-1170 -10 l0 -280 -280 0 -280 0 0 280 0 280 280 0 280 0 0 -280z m-582 -2
l-3 -273 -280 0 -280 0 -3 273 -2 272 285 0 285 0 -2 -272z m2342 -8 l0 -280
-280 0 -280 0 0 280 0 280 280 0 280 0 0 -280z m-3520 -575 l0 -285 -277 2
-278 3 -3 270 c-1 148 0 275 3 282 3 10 67 13 280 13 l275 0 0 -285z m1178 3
l2 -278 -285 0 -285 0 0 273 c0 151 3 277 7 280 4 4 131 6 282 5 l276 -3 3
-277z m1172 -8 l0 -280 -280 0 -280 0 0 280 0 280 280 0 280 0 0 -280z m1170
-5 l0 -275 -280 0 -280 0 0 275 0 275 280 0 280 0 0 -275z m-3520 -575 l0
-280 -280 0 -280 0 0 273 c0 151 3 277 7 280 3 4 129 7 280 7 l273 0 0 -280z
m590 0 l0 -280 -280 0 -280 0 0 280 0 280 280 0 280 0 0 -280z m590 0 l0 -280
-280 0 -280 0 0 280 0 280 280 0 280 0 0 -280z m2340 -10 l0 -280 -280 0 -280
0 0 273 c0 151 3 277 7 280 3 4 129 7 280 7 l273 0 0 -280z"/>
</g>
</svg>
